<svg width="27" height="26" viewBox="0 0 27 26" fill="none" xmlns="http://www.w3.org/2000/svg">
<g clip-path="url(#clip0_40_15)">
<path d="M13.3933 24.1771L2.49195 13.2757C1.24022 12.024 0.55072 10.3596 0.55072 8.58961C0.55072 6.81933 1.24022 5.15522 2.49195 3.90349C3.74367 2.65177 5.40778 1.96227 7.17806 1.96227C8.94834 1.96227 10.6125 2.65177 11.8642 3.90349L13.3933 5.43261L14.9224 3.90349C16.1741 2.65177 17.8385 1.96227 19.6085 1.96227C21.3788 1.96227 23.0429 2.65177 24.2946 3.90349C25.5467 5.15522 26.2359 6.81933 26.2359 8.58961C26.2359 10.3599 25.5467 12.024 24.2946 13.2757L13.3933 24.1771ZM7.17806 3.10383C5.71287 3.10383 4.33528 3.67461 3.29903 4.71058C2.26278 5.74654 1.69228 7.12441 1.69228 8.58961C1.69228 10.0548 2.26306 11.4324 3.29903 12.4686L13.3933 22.5629L23.4876 12.4686C24.5238 11.4324 25.0943 10.0548 25.0943 8.58961C25.0943 7.12441 24.5238 5.74683 23.4876 4.71058C22.4513 3.67461 21.074 3.10383 19.6085 3.10383C18.1433 3.10383 16.7658 3.67461 15.7295 4.71058L13.3933 7.04707L11.0568 4.71058C10.0208 3.67461 8.64326 3.10383 7.17806 3.10383Z" fill="black"/>
</g>
<defs>
<clipPath id="clip0_40_15">
<rect width="26" height="26" fill="white" transform="translate(0.407837)"/>
</clipPath>
</defs>
</svg>
