<svg width="26" height="26" viewBox="0 0 26 26" fill="none" xmlns="http://www.w3.org/2000/svg">
<path d="M10.0669 0C4.51299 0 0 4.51299 0 10.0669C0 15.6208 4.51299 20.1338 10.0669 20.1338C12.2644 20.1338 14.2954 19.426 15.9516 18.2278L23.7423 26L25.4078 24.3345L17.7096 16.6178C19.2224 14.8552 20.1338 12.5674 20.1338 10.0669C20.1338 4.51299 15.6208 0 10.0669 0ZM10.0669 1.18434C14.9801 1.18434 18.9495 5.15374 18.9495 10.0669C18.9495 14.9801 14.9801 18.9495 10.0669 18.9495C5.15374 18.9495 1.18434 14.9801 1.18434 10.0669C1.18434 5.15374 5.15374 1.18434 10.0669 1.18434Z" fill="black"/>
</svg>
