<svg width="27" height="26" viewBox="0 0 27 26" fill="none" xmlns="http://www.w3.org/2000/svg">
<g clip-path="url(#clip0_40_28)">
<path d="M23.7949 22.534L22.2987 5.67253C22.2718 5.33885 21.992 5.0859 21.6529 5.0859H18.4991C18.4937 2.28193 16.2118 0 13.4078 0C10.6039 0 8.32193 2.28193 8.31655 5.0859H5.16275C4.82907 5.0859 4.54921 5.33885 4.51692 5.67253L3.02075 22.534C3.02075 22.5556 3.02075 22.5717 3.02075 22.5933C3.02075 24.4715 4.74834 26 6.86882 26H19.9469C22.0673 26 23.7949 24.4715 23.7949 22.5933C23.7949 22.5717 23.7949 22.5556 23.7949 22.534ZM13.4078 1.29166C15.5014 1.29166 17.2021 2.99234 17.2075 5.0859H9.60821C9.61359 2.99234 11.3143 1.29166 13.4078 1.29166ZM19.9469 24.703H6.86882C5.46952 24.703 4.32856 23.7719 4.31241 22.6148L5.75476 6.37756H8.31655V8.64334C8.31655 8.99855 8.60717 9.28917 8.96238 9.28917C9.31758 9.28917 9.60821 8.99855 9.60821 8.64334V6.37756H17.2075V8.64334C17.2075 8.99855 17.4981 9.28917 17.8533 9.28917C18.2085 9.28917 18.4991 8.99855 18.4991 8.64334V6.37756H21.0609L22.5033 22.6202C22.4871 23.7719 21.3461 24.703 19.9469 24.703Z" fill="black"/>
</g>
<defs>
<clipPath id="clip0_40_28">
<rect width="26" height="26" fill="white" transform="translate(0.407837)"/>
</clipPath>
</defs>
</svg>
