<svg width="27" height="26" viewBox="0 0 27 26" fill="none" xmlns="http://www.w3.org/2000/svg">
<path d="M13.3933 25.828C8.92322 25.828 4.84527 23.3708 2.7505 19.4147L2.60895 19.1476L2.7505 18.8805C3.94286 16.629 5.86012 14.7777 8.14952 13.6672C8.90695 13.3002 9.79109 13.3059 10.5756 13.6829C11.4589 14.1073 12.407 14.3225 13.393 14.3225C14.379 14.3225 15.3271 14.1073 16.2104 13.6829C16.9958 13.3059 17.8799 13.3002 18.6368 13.6672C20.9262 14.7777 22.8434 16.629 24.0355 18.8805L24.1768 19.1476L24.0355 19.4147C21.9413 23.3708 17.8634 25.828 13.3933 25.828ZM3.90576 19.1482C5.84157 22.572 9.4489 24.6864 13.3933 24.6864C17.338 24.6864 20.9453 22.5723 22.8805 19.1482C21.794 17.2303 20.1205 15.6561 18.1388 14.6949C17.697 14.48 17.1739 14.4863 16.7052 14.7123C15.6661 15.2115 14.552 15.4646 13.3933 15.4646C12.2346 15.4646 11.1204 15.2115 10.0816 14.7123C9.61272 14.4872 9.08988 14.4803 8.6481 14.6949C6.66635 15.6558 4.99253 17.2303 3.90576 19.1482Z" fill="black"/>
<path d="M13.3933 12.3133C10.038 12.3133 7.30792 9.58358 7.30792 6.22824C7.30792 2.8729 10.038 0.142853 13.3933 0.142853C16.7486 0.142853 19.4784 2.87261 19.4784 6.22824C19.4784 9.58386 16.7486 12.3133 13.3933 12.3133ZM13.3933 1.28442C10.6673 1.28442 8.44948 3.50219 8.44948 6.22824C8.44948 8.95429 10.6673 11.1718 13.3933 11.1718C16.1194 11.1718 18.3368 8.954 18.3368 6.22824C18.3368 3.50247 16.1194 1.28442 13.3933 1.28442Z" fill="black"/>
</svg>
