<svg width="31" height="30" viewBox="0 0 31 30" fill="none" xmlns="http://www.w3.org/2000/svg">
<path d="M4.29999 0.300003C2.37533 0.300003 0.799988 1.87534 0.799988 3.8V26.2C0.799988 28.1247 2.37533 29.7 4.29999 29.7H16.0824C16.158 29.7125 16.2351 29.7125 16.3107 29.7H20.2824C20.358 29.7125 20.4351 29.7125 20.5107 29.7H26.7C28.6246 29.7 30.2 28.1247 30.2 26.2V3.8C30.2 1.87534 28.6246 0.300003 26.7 0.300003H4.29999ZM4.29999 1.7H26.7C27.8679 1.7 28.8 2.63206 28.8 3.8V26.2C28.8 27.3679 27.8679 28.3 26.7 28.3H21.1V18.5H23.7742L24.7545 13.6H21.1V12.2C21.1 11.8098 21.1371 11.7793 21.2682 11.6941C21.3992 11.609 21.8041 11.5 22.5 11.5H24.6V7.5584L24.2008 7.36836C24.2008 7.36836 22.5928 6.6 20.4 6.6C18.825 6.6 17.5311 7.22752 16.7031 8.2625C15.8751 9.29749 15.5 10.6833 15.5 12.2V13.6H13.4V18.5H15.5V28.3H4.29999C3.13205 28.3 2.19999 27.3679 2.19999 26.2V3.8C2.19999 2.63206 3.13205 1.7 4.29999 1.7ZM20.4 8C21.8553 8 22.7711 8.32092 23.2 8.49082V10.1H22.5C21.6944 10.1 21.0489 10.1666 20.5053 10.5197C19.9617 10.8728 19.7 11.543 19.7 12.2V15H23.0455L22.6258 17.1H19.7V28.3H16.9V17.1H14.8V15H16.9V12.2C16.9 10.9167 17.2248 9.85252 17.7969 9.1375C18.3689 8.42249 19.175 8 20.4 8Z" fill="white"/>
</svg>
