<svg width="31" height="31" viewBox="0 0 31 31" fill="none" xmlns="http://www.w3.org/2000/svg">
<path d="M9.1 0C4.08274 0 0 4.08274 0 9.1V21.7C0 26.7173 4.08274 30.8 9.1 30.8H21.7C26.7173 30.8 30.8 26.7173 30.8 21.7V9.1C30.8 4.08274 26.7173 0 21.7 0H9.1ZM9.1 1.4H21.7C25.9605 1.4 29.4 4.83946 29.4 9.1V21.7C29.4 25.9605 25.9605 29.4 21.7 29.4H9.1C4.83946 29.4 1.4 25.9605 1.4 21.7V9.1C1.4 4.83946 4.83946 1.4 9.1 1.4ZM23.8 5.6C23.4287 5.6 23.0726 5.7475 22.81 6.01005C22.5475 6.2726 22.4 6.6287 22.4 7C22.4 7.3713 22.5475 7.7274 22.81 7.98995C23.0726 8.2525 23.4287 8.4 23.8 8.4C24.1713 8.4 24.5274 8.2525 24.7899 7.98995C25.0525 7.7274 25.2 7.3713 25.2 7C25.2 6.6287 25.0525 6.2726 24.7899 6.01005C24.5274 5.7475 24.1713 5.6 23.8 5.6ZM15.4 7.7C11.1557 7.7 7.7 11.1557 7.7 15.4C7.7 19.6443 11.1557 23.1 15.4 23.1C19.6443 23.1 23.1 19.6443 23.1 15.4C23.1 11.1557 19.6443 7.7 15.4 7.7ZM15.4 9.1C18.8877 9.1 21.7 11.9123 21.7 15.4C21.7 18.8877 18.8877 21.7 15.4 21.7C11.9123 21.7 9.1 18.8877 9.1 15.4C9.1 11.9123 11.9123 9.1 15.4 9.1Z" fill="white"/>
</svg>
