<svg width="35" height="26" viewBox="0 0 35 26" fill="none" xmlns="http://www.w3.org/2000/svg">
<path d="M17.5219 0.199997C12.2406 0.199997 7.28125 0.599997 4.64062 1.15937C2.88125 1.55937 1.35937 2.75937 1.04062 4.6C0.721875 6.51875 0.4 9.4 0.4 13C0.4 16.6 0.71875 19.4 1.11875 21.4C1.44062 23.1594 2.95938 24.4406 4.71875 24.8406C7.52188 25.4 12.3188 25.8 17.6 25.8C22.8813 25.8 27.6781 25.4 30.4781 24.8406C32.2406 24.4406 33.7594 23.2406 34.0781 21.4C34.4 19.4 34.8 16.5219 34.8781 12.9219C34.8781 9.32187 34.4781 6.44062 34.0781 4.44062C33.7594 2.68125 32.2406 1.4 30.4781 0.999997C27.6781 0.599997 22.8 0.199997 17.5219 0.199997ZM17.5219 1.8C23.2812 1.8 27.9188 2.27812 30.1594 2.67812C31.3594 3 32.3188 3.8 32.4781 4.84062C32.9594 7.4 33.2781 10.1219 33.2781 12.9219C33.2 16.3594 32.8 19.1594 32.4781 21.1594C32.2406 22.6781 30.6406 23.1594 30.1594 23.3219C27.2781 23.8812 22.4781 24.2781 17.6781 24.2781C12.8781 24.2781 8 23.9594 5.2 23.3219C4 23 3.04062 22.2 2.88125 21.1594C2.24062 18.9187 2 15.9594 2 13C2 9.31875 2.32187 6.6 2.64062 4.92187C2.88125 3.4 4.55937 2.91875 4.95937 2.75937C7.6 2.2 12.4812 1.8 17.5219 1.8ZM13.2 6.6V19.4L24.4 13L13.2 6.6ZM14.8 9.32187L21.2 13L14.8 16.6781V9.32187Z" fill="white"/>
</svg>
